<?xml version="1.0" standalone="no"?>
<!DOCTYPE svg PUBLIC "-//W3C//DTD SVG 20010904//EN"
 "http://www.w3.org/TR/2001/REC-SVG-20010904/DTD/svg10.dtd">
<svg version="1.0" xmlns="http://www.w3.org/2000/svg"
 width="537.000000pt" height="303.000000pt" viewBox="0 0 537.000000 303.000000"
 preserveAspectRatio="xMidYMid meet">
<metadata>
Created by potrace 1.15, written by Peter Selinger 2001-2017
</metadata>
<g transform="translate(0.000000,303.000000) scale(0.100000,-0.100000)"
fill="#000000" stroke="none">
<path d="M1690 2428 c-49 -14 -85 -42 -104 -82 -14 -30 -16 -103 -16 -660 0
-694 -2 -670 65 -722 34 -26 46 -29 135 -32 l98 -4 7 -53 c25 -201 222 -340
413 -291 76 19 127 50 180 112 43 48 82 146 82 205 l0 28 418 5 c229 2 428 5
442 5 14 1 59 -2 100 -6 l75 -8 6 -55 c12 -115 79 -209 186 -262 55 -27 77
-32 137 -32 100 -1 164 24 235 90 66 61 100 126 108 210 l6 54 68 0 c62 0 72
3 103 31 20 17 40 47 46 67 12 46 13 412 1 445 -11 28 -221 331 -299 432 -30
39 -75 91 -101 118 l-45 47 -273 0 -273 0 0 103 c0 56 -5 120 -11 142 -14 50
-64 100 -114 114 -52 14 -1624 14 -1675 -1z m1658 -745 l-3 -618 -415 -2 -415
-3 -25 41 c-53 87 -169 149 -280 149 -111 0 -226 -62 -280 -150 l-25 -40 -87
0 c-47 0 -93 3 -102 6 -14 6 -16 69 -16 613 0 334 3 611 7 614 3 4 375 7 825
7 l818 0 -2 -617z m702 212 l31 -45 -88 0 c-71 0 -98 -5 -138 -24 -94 -43
-137 -118 -139 -236 -1 -88 14 -138 57 -186 64 -73 84 -78 347 -84 l235 -5 3
-127 3 -128 -65 0 -64 0 -36 50 c-90 125 -269 174 -408 112 -53 -23 -133 -92
-154 -134 -14 -26 -18 -28 -79 -28 l-65 0 0 440 0 440 265 0 264 0 31 -45z
m193 -297 c46 -68 87 -129 91 -135 6 -10 -38 -13 -203 -13 l-210 0 -36 31
c-34 30 -35 33 -35 101 0 66 2 72 34 104 l34 34 120 0 121 0 84 -122z m-1969
-489 c54 -15 119 -83 135 -141 50 -177 -145 -327 -303 -234 -150 88 -127 316
39 374 40 14 82 14 129 1z m1709 0 c81 -22 147 -111 147 -199 0 -187 -230
-274 -358 -136 -45 49 -57 89 -50 166 7 69 44 121 109 154 57 28 93 32 152 15z"/>
<path d="M1910 2044 c-8 -8 -13 -29 -13 -45 0 -26 22 -53 141 -172 l142 -142
-139 -140 c-155 -155 -168 -179 -127 -219 14 -15 35 -26 48 -26 16 0 74 52
200 178 150 150 178 182 178 207 0 25 -28 57 -173 202 -159 160 -175 173 -209
173 -20 0 -41 -7 -48 -16z"/>
<path d="M2315 2031 c-10 -21 -12 -37 -6 -53 5 -13 70 -84 145 -158 l136 -135
-139 -140 c-155 -155 -168 -179 -127 -219 14 -15 35 -26 47 -26 16 0 77 54
201 177 151 150 178 182 178 207 0 25 -27 57 -172 203 -162 163 -174 173 -210
173 -31 0 -40 -5 -53 -29z"/>
<path d="M2732 2047 c-6 -6 -14 -25 -17 -40 -7 -26 4 -39 139 -175 l146 -147
-140 -140 c-154 -155 -167 -179 -126 -219 14 -15 35 -26 48 -26 16 0 74 52
200 178 150 150 178 182 178 207 0 25 -28 57 -173 202 -159 160 -175 173 -209
173 -19 0 -40 -6 -46 -13z"/>
<path d="M654 2034 c-13 -19 -15 -32 -8 -52 18 -51 29 -52 437 -50 362 3 379
4 393 22 19 27 18 70 -4 89 -17 15 -60 17 -410 17 l-392 0 -16 -26z"/>
<path d="M304 1712 c-39 -25 -36 -90 5 -111 13 -8 204 -11 578 -11 621 0 603
-2 603 64 0 69 27 66 -606 66 -313 0 -574 -4 -580 -8z"/>
<path d="M660 1360 c-27 -27 -25 -56 5 -85 l24 -25 378 0 c423 0 423 0 423 64
0 67 7 66 -423 66 -374 0 -388 -1 -407 -20z"/>
</g>
</svg>
